<svg width="14" height="14" viewBox="0 0 14 14" fill="none" xmlns="http://www.w3.org/2000/svg">
<path d="M2.5 4.5C2.5 3.39543 3.39543 2.5 4.5 2.5H9.5C10.6046 2.5 11.5 3.39543 11.5 4.5V7.5C11.5 8.60457 10.6046 9.5 9.5 9.5H8.5L9.5 11.5H8L7 9.5H7L6 9.5L5 11.5H3.5L4.5 9.5H4.5C3.39543 9.5 2.5 8.60457 2.5 7.5V4.5ZM4.25 5C3.97386 5 3.75 5.22386 3.75 5.5C3.75 5.77614 3.97386 6 4.25 6H4.75V6.5C4.75 6.77614 4.97386 7 5.25 7C5.52614 7 5.75 6.77614 5.75 6.5V6H6.25C6.52614 6 6.75 5.77614 6.75 5.5C6.75 5.22386 6.52614 5 6.25 5H5.75V4.5C5.75 4.22386 5.52614 4 5.25 4C4.97386 4 4.75 4.22386 4.75 4.5V5H4.25ZM9 5C8.72386 5 8.5 5.22386 8.5 5.5C8.5 5.77614 8.72386 6 9 6C9.27614 6 9.5 5.77614 9.5 5.5C9.5 5.22386 9.27614 5 9 5ZM10 6.5C10 6.22386 10.2239 6 10.5 6C10.7761 6 11 6.22386 11 6.5C11 6.77614 10.7761 7 10.5 7C10.2239 7 10 6.77614 10 6.5Z" fill="#007AFF"/>
</svg>
